<?xml version="1.0" encoding="UTF-8" standalone="no"?>
<!DOCTYPE svg PUBLIC "-//W3C//DTD SVG 1.1//EN" "http://www.w3.org/Graphics/SVG/1.1/DTD/svg11.dtd">
<svg width="100%" height="100%" viewBox="0 0 1254 406" version="1.1" xmlns="http://www.w3.org/2000/svg" xmlns:xlink="http://www.w3.org/1999/xlink" xml:space="preserve" xmlns:serif="http://www.serif.com/" style="fill-rule:evenodd;clip-rule:evenodd;stroke-linejoin:round;stroke-miterlimit:2;">
    <g transform="matrix(1.224609,0,0,1.224609,0,0)">
        <path d="M231.411,128.35C230.691,129.879 230.88,129.854 230.829,131.576C230.482,140.51 215.217,244.402 213.059,247.19C211.681,248.971 206.964,250.506 204.839,245.336C204.36,244.169 189.999,182.304 187.998,171.072C188.026,169.678 187.927,169.766 187.516,168.476C187.367,168.471 186.544,167.12 186.23,169.262C183.69,186.58 180.025,186.638 178.502,186.663C171.594,186.773 148.138,185.323 145.5,185.16C142.85,184.996 143.105,187.313 143.097,187.46C142.9,191.229 140.724,232.866 134.558,233.856C134.064,233.935 107.011,233.865 106.451,233.757C100.927,232.688 96.859,185.587 98.992,149.537C99.174,146.463 102.273,114.812 104.852,111.791C106.34,110.048 106.723,110.313 133.496,110.796C137.065,110.861 140.352,111.444 142.484,154.501C142.85,161.889 143.929,167.525 139.507,167.643C130.308,167.89 124.169,168.299 123.92,166.296C123.171,160.27 124.702,144.432 124.885,142.538C125.814,132.924 125.449,132.927 127.243,123.48C127.305,123.151 129.519,111.497 125.7,119.594C123.766,123.695 123.07,144.119 120.573,144.812C118.824,145.298 105.696,143.737 105.122,146.371C103.264,154.899 106.773,154.913 107.482,154.916C111.614,154.933 120.854,154.108 121.143,156.652C121.378,158.722 119.908,208.592 126.479,226.514C127.591,229.546 129.139,227.687 129.135,227.454C129.072,223.91 125.263,224.374 123.79,183.466C123.619,175.287 122.782,174.781 124.346,174.069C127.071,172.827 169.267,175.028 170.639,172.6C173.2,168.071 179.445,138.057 184.602,134.679C192.256,129.663 195.916,142.446 196.239,143.572C197.05,146.406 196.873,146.428 204.762,179.42C204.956,180.231 205.535,190.182 207.574,188.594C208.721,187.702 206.548,187.095 209.814,170.572C210.679,166.197 210.332,166.19 218.444,115.491C223.211,85.703 222.032,69.995 231.487,69.902C237.239,69.846 234.97,73.368 252.284,147.542C252.527,148.582 252.495,148.484 255.231,160.556C256.147,164.598 258.149,174.35 258.396,175.551C258.529,176.198 258.583,176.354 258.606,176.422C258.952,177.425 259.47,176.568 259.494,176.572C259.806,176.522 260.119,176.472 260.431,176.421C264.056,170.089 268.175,164.808 268.921,163.852C272.878,158.778 305.96,164.209 310.725,160.592C312.824,162.227 312.987,162.321 327.596,162.8C328.039,162.814 329.93,162.529 330.132,162.499C330.171,172.264 330.244,172.204 330.174,173.045C330.037,174.703 309.421,173.24 281.51,173.743C275.242,173.856 262.308,201.232 257.585,203.654C246.555,209.31 248.088,193.067 235.89,145.379C231.745,129.177 233.669,127.975 232.243,127.875C231.924,127.853 231.729,128.373 231.411,128.35Z" style="fill:rgb(80,153,71);"/>
    </g>
    <g transform="matrix(1.224609,0,0,1.224609,0,0)">
        <path d="M903.5,218.578C868.01,218.511 847.472,220.661 847.567,185.5C847.67,147.231 842.468,128.695 882.5,128.404C918.705,128.14 920.21,128.382 923.444,128.901C951.531,133.406 949.419,150.56 948.818,189.504C948.328,221.287 921.598,218.496 903.5,218.578ZM903.5,147.653C882.33,147.708 868.79,145.322 868.51,160.5C867.923,192.232 869.736,194.219 871.676,196.346C878.135,203.427 918.135,201.003 922.391,198.301C928.879,194.181 927.386,188.108 927.636,163.501C927.82,145.333 914.741,147.725 903.5,147.653Z" style="fill:rgb(77,89,95);"/>
    </g>
    <g transform="matrix(1.224609,0,0,1.224609,0,0)">
        <path d="M531.212,158.506C530.214,200.455 501.542,189.217 464.45,191.13C461.137,191.3 462.805,201.678 462.337,215.487C462.286,217.011 462.179,220.176 443.508,218.436C440.72,218.176 441.355,216.674 441.272,173.5C441.189,130.44 440.727,128.996 443.518,128.641C446.465,128.266 494.099,128.675 498.497,128.713C524.57,128.937 528.896,145.605 529.637,148.461C530.926,153.427 530.742,153.412 531.212,158.506ZM481.5,147.534C466.673,147.547 462.492,146.891 462.441,149.495C462.019,170.682 461.68,170.854 462.8,172.294C463.455,173.136 468.96,173.211 469.501,173.219C499.593,173.631 508.157,173.745 509.768,163.553C512.798,144.39 490.784,147.539 481.5,147.534Z" style="fill:rgb(81,92,99);"/>
    </g>
    <g transform="matrix(1.224609,0,0,1.224609,0,0)">
        <path d="M743.168,210.495C743.179,209.727 743.298,201.454 743.941,200.925C744.518,200.45 746.292,200.45 746.5,200.45C805.382,200.436 808.69,201.558 810.557,194.516C815.967,174.117 781.235,185.503 758.423,179.77C738.244,174.699 735.759,136.287 761.619,129.975C766.585,128.762 768.236,128.359 825.499,128.579C829.644,128.595 828.872,131.996 828.693,144.506C828.629,148.952 823.985,147.631 811.5,147.624C769.766,147.601 765.868,147.22 764.778,154.545C761.297,177.954 832.563,145.063 833.091,189.501C833.472,221.521 801.408,218.482 800.5,218.478C745.973,218.214 743.172,220.024 743.133,215.519C743.118,213.844 743.183,212.169 743.168,210.495Z" style="fill:rgb(79,90,97);"/>
    </g>
    <g transform="matrix(1.224609,0,0,1.224609,0,0)">
        <path d="M566.25,166.498C566.314,184.457 562.753,200.698 583.497,200.788C606.373,200.888 617.612,201.95 617.591,185.5C617.52,131.37 615.407,128.815 619.521,128.667C637.816,128.012 638.269,128.994 638.491,130.502C638.647,131.563 638.852,193.018 638.137,196.443C634.54,213.671 628.336,220.544 575.501,218.464C545.987,217.302 545.161,193.82 545.045,190.515C544.049,162.192 544.829,137.149 544.974,132.51C545.13,127.486 549.224,128.81 562.502,128.55C563.218,128.536 566.042,128.138 566.254,130.539C566.329,131.384 566.314,155.31 566.25,166.498Z" style="fill:rgb(78,92,97);"/>
    </g>
    <g transform="matrix(1.224609,0,0,1.224609,0,0)">
        <path d="M324.536,110.663C344.749,110.684 344.731,110.624 346.487,110.657C352.627,110.772 354.159,140.894 355.468,158.502C356.621,174.001 353.991,232.478 347.535,233.695C347.172,233.763 321.603,233.856 319.476,233.718C312.125,233.239 310.394,189.437 310.883,181.541C310.97,180.13 311.387,178.982 328.459,179.737C329.959,179.804 330.787,180.403 329.314,198.483C327.479,221.018 323.991,227.932 326.541,226.885C331.969,224.658 332.349,180.557 332.384,176.5C332.445,169.433 332.906,169.543 332.835,162.502C332.781,157.154 331.128,154.92 336.5,154.527C346.682,154.481 346.617,154.5 347.497,154.477C348.141,154.46 350.48,154.399 349.098,146.579C348.66,144.101 340.908,144.941 333.506,145.03C331.684,143.803 331.839,143.647 331.532,141.496C329.284,125.697 329.851,125.613 324.536,110.663Z" style="fill:rgb(72,162,49);"/>
    </g>
    <g transform="matrix(1.224609,0,0,1.224609,0,0)">
        <path d="M677.286,169.499C677.26,197.601 676.744,199.038 679.519,199.3C683.5,199.675 683.471,198.973 729.507,199.314C730.818,199.324 733.31,199.342 731.89,215.537C731.517,219.794 728.991,218.262 692.5,218.46C657.421,218.65 656.54,218.553 656.15,216.585C655.932,215.483 655.604,132.131 656.152,130.376C656.589,128.975 657.018,128.493 674.497,128.636C677.972,128.664 677.228,130.055 677.261,133.502C677.289,136.381 677.248,136.354 677.286,169.499Z" style="fill:rgb(80,94,100);"/>
    </g>
    <g transform="matrix(1.224609,0,0,1.224609,0,0)">
        <path d="M80.208,220.592C79.206,215.151 73.95,186.625 76.846,151.517C79.388,120.706 81.037,120.367 83.574,119.845C84.202,119.716 98.422,119.739 98.448,119.743C101.038,120.159 96.297,133.7 95.53,161.501C93.946,218.923 104.605,225.526 96.5,225.532C85.317,225.541 83.428,227.464 80.208,220.592Z" style="fill:rgb(58,73,91);"/>
    </g>
    <g transform="matrix(1.224609,0,0,1.224609,0,0)">
        <path d="M373.63,220.541C370.863,227.724 368.653,225.435 363.499,225.456C362.768,225.459 354.559,225.492 354.395,224.59C353.691,220.704 361.728,196.162 357.384,142.513C356.092,126.551 352.409,119.656 356.508,119.642C368.305,119.604 372.198,116.897 374.623,128.466C376.622,138.002 379.036,173.057 377.004,193.476C375.65,207.077 376.044,207.033 373.63,220.541Z" style="fill:rgb(72,166,51);"/>
    </g>
    <g transform="matrix(1.224609,0,0,1.224609,0,0)">
        <path d="M59.166,208.56C53.915,182.026 57.571,144.741 60.232,132.422C60.995,128.889 66.716,129.542 74.492,129.616C77.792,129.648 74.768,139.685 74.154,150.472C70.649,212.045 79.719,215.784 74.479,216.063C64.414,216.6 61.258,218.457 59.166,208.56Z" style="fill:rgb(52,71,92);"/>
    </g>
    <g transform="matrix(1.224609,0,0,1.224609,0,0)">
        <path d="M394.786,208.551C392.64,218.327 389.467,216.117 379.506,216.172C374.987,216.197 381.317,203.62 380.763,166.498C380.351,138.975 376.225,129.694 379.516,129.618C388.21,129.415 393.591,128.478 394.595,135.482C395.766,143.641 400.34,173.613 394.786,208.551Z" style="fill:rgb(87,177,54);"/>
    </g>
    <g transform="matrix(1.224609,0,0,1.224609,0,0)">
        <path d="M322.451,110.996C323.184,115.307 329.381,124.763 330.132,162.499C329.93,162.529 328.039,162.814 327.596,162.8C312.987,162.321 312.824,162.227 310.725,160.592C312.256,136.542 312.802,130.141 314.857,118.57C316.653,108.461 321.483,111.03 322.451,110.996Z" style="fill:rgb(72,154,48);"/>
    </g>
    <g transform="matrix(1.224609,0,0,1.224609,0,0)">
        <path d="M682.527,263.38C682.746,262.996 683.314,262.901 683.534,262.517C684.209,261.335 683.368,261.204 683.562,245.501C683.635,239.595 689.604,240.868 689.688,244.489C690.285,270.016 690.511,270.725 688.478,271.453C683.467,273.25 679.452,269.585 661.223,250.859C657.938,247.484 659.517,252.506 659.187,269.478C659.113,273.318 654.796,271.928 654.39,271.797C652.31,271.127 652.513,270.381 652.992,244.512C653.064,240.627 654.577,241.411 658.499,241.521C662.872,241.644 676.975,258.863 682.527,263.38Z" style="fill:rgb(66,153,67);"/>
    </g>
    <g transform="matrix(1.224609,0,0,1.224609,0,0)">
        <path d="M734.503,258.79C725.09,258.797 718.908,258.09 718.77,260.53C718.742,261.025 718.447,266.232 719.349,266.703C722.555,268.378 744.675,264.61 744.532,269.501C744.461,271.926 741.156,271.973 718.497,271.648C713.56,271.577 712.389,271.408 712.315,266.502C711.964,243.271 711.88,242.775 713.623,241.846C714.17,241.554 742.344,241.288 743.304,241.905C744.905,242.934 744.588,246.083 741.491,246.131C720.127,246.46 719.078,245.485 718.732,247.551C717.116,257.2 722.649,253.949 732.503,254.052C739.154,254.122 739.311,253.576 740.495,254.508C741.611,255.387 741.627,257.054 740.96,257.846C740.266,258.668 735.025,258.779 734.503,258.79Z" style="fill:rgb(75,161,77);"/>
    </g>
    <g transform="matrix(1.224609,0,0,1.224609,0,0)">
        <path d="M783.485,267.268C783.975,267.198 787.974,266.626 789.36,265.352C795.686,259.539 776.653,259.116 770.563,257.287C762.838,254.968 756.892,241.761 779.485,241.167C784.076,241.046 797.728,240.777 794.715,246.639C793.941,248.144 776.285,244.093 771.605,247.645C764.519,253.022 783.914,253.432 790.553,255.337C803.307,258.998 798.091,278.362 767.445,270.704C762.464,269.46 764.116,265.085 766.492,265.557C774.893,267.226 774.818,267.126 783.485,267.268Z" style="fill:rgb(70,165,71);"/>
    </g>
    <g transform="matrix(1.224609,0,0,1.224609,0,0)">
        <path d="M829.485,241.206C833.366,241.239 836.406,240.676 844.528,242.402C845.827,242.678 849.905,248.36 842.426,246.941C832.675,245.09 824.032,246.077 822.406,248.416C817.151,255.982 844.419,250.834 848.1,259.677C855.684,277.894 809.342,273.341 816.208,266.281C817.405,265.051 836.59,270.028 841.176,265.191C846.878,259.178 827.895,259.104 823.451,257.661C814.048,254.607 809.271,242.879 829.485,241.206Z" style="fill:rgb(71,168,73);"/>
    </g>
    <g transform="matrix(1.224609,0,0,1.224609,0,0)">
        <path d="M541.491,254.835C545.692,255.181 548.231,253.37 547.5,257.5C546.799,261.458 526.853,256.815 526.646,261.516C526.326,268.774 528.559,273.212 521.542,271.367C519.968,270.953 519.766,270.351 519.84,244.511C519.851,240.76 523.907,241.59 542.5,241.547C543.156,241.545 550.25,241.529 550.654,242.393C552.93,247.26 548.416,245.137 528.457,246.286C525.723,246.444 526.61,253.161 526.742,253.429C527.59,255.151 533.598,254.706 541.491,254.835Z" style="fill:rgb(74,154,76);"/>
    </g>
    <g transform="matrix(1.224609,0,0,1.224609,0,0)">
        <path d="M626.5,241.494C632.197,241.615 632.352,241.271 633.106,241.995C637.351,246.071 628.058,246.173 627.498,246.179C621.581,246.244 618.883,244.575 618.963,250.497C619.192,267.227 620.056,271.958 615.487,271.775C610.7,271.582 612.494,262.633 612.407,248.506C612.379,243.985 599.16,248.018 598.304,244.548C597.372,240.768 601.576,241.588 626.5,241.494Z" style="fill:rgb(72,157,73);"/>
    </g>
    <g transform="matrix(1.224609,0,0,1.224609,0,0)">
        <path d="M903.507,258.902C880.498,259.156 864.519,261.157 869.969,255.925C870.956,254.978 947.827,255.585 948.217,256.722C949.379,260.11 946.287,258.608 903.507,258.902Z" style="fill:rgb(127,183,133);"/>
    </g>
    <g transform="matrix(1.224609,0,0,1.224609,0,0)">
        <path d="M427.964,256.855C430.862,255.616 431.013,256.075 493.499,255.401C502.132,255.308 496.514,259.427 496.486,259.432C495.515,259.6 493.717,258.994 432.469,258.652C430.793,258.643 429.739,258.521 429.503,258.494C427.232,258.233 428.016,256.968 427.964,256.855Z" style="fill:rgb(121,181,125);"/>
    </g>
    <g transform="matrix(1.224609,0,0,1.224609,0,0)">
        <path d="M404.491,186.163C401.138,186.146 399.744,186.905 399.749,183.498C399.75,182.973 399.757,177.243 401.446,177.156C406.071,176.917 408.446,179.091 408.378,174.492C408.37,173.941 408.288,168.436 407.366,167.671C405.347,165.995 399.793,170.483 399.671,163.504C399.666,163.22 399.62,160.559 401.496,160.463C402.269,160.423 410.207,160.013 411.095,161.664C411.312,162.066 413.221,184.935 409.635,185.933C409.238,186.043 409.254,185.95 404.491,186.163Z" style="fill:rgb(101,164,63);"/>
    </g>
    <g transform="matrix(1.224609,0,0,1.224609,0,0)">
        <path d="M54.397,185.325C49.355,186.706 49.21,187.747 44.396,185.718C41.422,184.464 42.518,162.648 43.557,161.551C44.57,160.483 54.265,159.329 54.316,162.549C54.452,171.023 49.203,166.081 46.755,167.854C45.945,168.441 44.244,176.589 48.495,176.621C48.965,176.624 54.182,176.663 54.264,177.758C54.309,178.362 54.274,178.319 54.397,185.325Z" style="fill:rgb(68,81,101);"/>
    </g>
    <g transform="matrix(1.224609,0,0,1.224609,0,0)">
        <path d="M571.25,260.501C571.281,252.017 571.117,243.448 571.735,242.649C572.825,241.241 576.093,241.751 576.75,242.042C579.392,243.213 577.918,267.345 577.784,269.543C577.662,271.539 575.785,271.748 575.533,271.777C569.576,272.442 571.271,263.701 571.25,260.501Z" style="fill:rgb(53,144,58);"/>
    </g>
    <g transform="matrix(1.224609,0,0,1.224609,0,0)">
        <path d="M333.506,145.03C340.908,144.941 348.66,144.101 349.098,146.579C350.48,154.399 348.141,154.46 347.497,154.477C346.617,154.5 346.682,154.481 336.5,154.527C332.435,151.087 333.983,150.272 333.506,145.03Z" style="fill:rgb(247,251,241);"/>
    </g>
    <g transform="matrix(1.224609,0,0,1.224609,0,0)">
        <path d="M65.527,153.936C58.898,153.718 63.005,146.049 64.548,145.819C71.937,144.72 69.401,150.145 69.13,151.401C68.602,153.846 68.021,153.528 65.527,153.936Z" style="fill:rgb(216,218,224);"/>
    </g>
    <g transform="matrix(1.224609,0,0,1.224609,0,0)">
        <path d="M368.509,149.202C366.368,148.428 365.852,148.707 365.528,146.495C365.179,144.116 363.143,140.038 369.455,140.684C370.164,140.756 374.098,147.142 368.509,149.202Z" style="fill:rgb(232,246,211);"/>
    </g>
    <g transform="matrix(1.224609,0,0,1.224609,0,0)">
        <path d="M81.798,143.444C81.514,139.84 82.946,140.301 86.512,140.372C89.758,140.436 88.12,146.478 87.233,147.176C83.079,150.445 81.892,143.963 81.798,143.444Z" style="fill:rgb(218,220,221);"/>
    </g>
    <g transform="matrix(1.224609,0,0,1.224609,0,0)">
        <path d="M390.791,150.5C390.191,154.788 385.899,155.45 385.222,149.528C384.794,145.793 385.981,145.248 389.596,146.246C390.939,146.617 390.384,147.072 390.791,150.5Z" style="fill:rgb(238,250,220);"/>
    </g>
    <g transform="matrix(1.224609,0,0,1.224609,0,0)">
        <path d="M231.411,128.35C231.185,130.039 231.055,129.936 230.829,131.576C230.88,129.854 230.691,129.879 231.411,128.35Z" style="fill:rgb(147,209,111);"/>
    </g>
    <g transform="matrix(1.224609,0,0,1.224609,0,0)">
        <path d="M187.516,168.476C187.927,169.766 188.026,169.678 187.998,171.072C187.837,170.207 187.676,169.341 187.516,168.476Z" style="fill:rgb(132,199,116);"/>
    </g>
</svg>
